<?xml version="1.0" encoding="UTF-8"?>
<svg xmlns="http://www.w3.org/2000/svg" xmlns:xlink="http://www.w3.org/1999/xlink" width="64pt" height="64pt" viewBox="0 0 64 64" version="1.1">
<g id="surface1">
<path style=" stroke:none;fill-rule:evenodd;fill:rgba(98, 161, 228, .0);fill-opacity:1;" d="M 32 64 C 49.671875 64 64 49.671875 64 32 C 64 14.328125 49.671875 0 32 0 C 14.328125 0 0 14.328125 0 32 C 0 49.671875 14.328125 64 32 64 Z M 32 64 "/>
<path style=" stroke:none;fill-rule:evenodd;fill:rgb(0%,0%,0%);fill-opacity:1;" d="M 16 23.253906 L 16 41.375 C 16 42.363281 16.722656 43.160156 17.714844 43.160156 L 45.996094 43.160156 C 46.988281 43.160156 47.710938 42.351562 47.710938 41.375 L 47.710938 23.253906 C 47.710938 22.171875 47.066406 21.332031 45.996094 21.332031 L 17.714844 21.332031 C 16.605469 21.332031 16 22.195312 16 23.253906 M 18.609375 24.832031 C 18.609375 24.398438 18.871094 24.148438 19.292969 24.148438 C 19.554688 24.148438 29.832031 30.660156 30.453125 31.039062 L 32.0625 32.039062 C 32.570312 31.699219 33.082031 31.40625 33.613281 31.054688 C 34.691406 30.363281 44.289062 24.148438 44.554688 24.148438 C 44.976562 24.148438 45.238281 24.398438 45.238281 24.832031 C 45.238281 25.296875 44.347656 25.753906 43.769531 26.109375 C 40.125 28.332031 36.480469 30.753906 32.871094 33.058594 C 32.660156 33.199219 32.253906 33.503906 31.949219 33.457031 C 31.605469 33.40625 21.148438 26.6875 19.246094 25.566406 C 18.960938 25.398438 18.609375 25.246094 18.609375 24.832031 "/>
</g>
</svg>
