<svg width="730" height="398" viewBox="0 0 730 398" fill="none" xmlns="http://www.w3.org/2000/svg">
<path d="M92.448 80.304L139.104 80.88C162.144 80.88 177.504 79.056 185.184 75.408C184.224 87.888 181.152 96.24 175.968 100.464C170.976 104.496 163.008 106.512 152.064 106.512C134.016 106.512 111.456 104.4 84.384 100.176C84.384 113.04 80.352 143.664 72.288 192.048C109.92 191.664 134.496 188.496 146.016 182.544C144.864 197.712 140.544 207.12 133.056 210.768C129.024 212.88 125.184 214.224 121.536 214.8C117.888 215.184 113.472 215.376 108.288 215.376C103.104 215.376 89.952 214.512 68.832 212.784C62.88 250.992 59.904 279.312 59.904 297.744C59.904 301.584 60 304.368 60.192 306.096C75.936 306.864 89.184 307.248 99.936 307.248C136.224 307.248 159.072 304.752 168.48 299.76C167.904 307.44 166.56 313.584 164.448 318.192C162.528 322.8 159.264 326.16 154.656 328.272C150.048 330.384 145.536 331.632 141.12 332.016C136.896 332.592 129.984 332.88 120.384 332.88C110.976 332.88 92.16 330.864 63.936 326.832C58.752 330.48 53.568 332.304 48.384 332.304C34.56 332.304 27.648 322.992 27.648 304.368C27.648 292.272 31.968 261.264 40.608 211.344C37.536 211.152 32.64 211.056 25.92 211.056C26.88 203.952 28.416 199.248 30.528 196.944C32.64 194.448 37.056 192.912 43.776 192.336C49.152 158.352 51.84 134.736 51.84 121.488C51.84 108.048 50.4 97.008 47.52 88.368C54.24 82.992 69.216 80.304 92.448 80.304ZM234.306 73.968C241.602 73.968 246.882 76.368 250.146 81.168C253.41 85.776 255.042 93.744 255.042 105.072C255.042 116.4 250.914 146.448 242.658 195.216C234.594 243.792 230.562 277.968 230.562 297.744C230.562 301.584 230.658 304.464 230.85 306.384C241.794 306.96 254.178 307.248 268.002 307.248C303.714 307.248 326.082 304.752 335.106 299.76C334.53 307.44 333.282 313.584 331.362 318.192C329.442 322.8 326.274 326.16 321.858 328.272C317.634 330.384 313.41 331.632 309.186 332.016C305.154 332.592 298.626 332.88 289.602 332.88C280.578 332.88 262.338 330.864 234.882 326.832C229.698 330.48 224.322 332.304 218.754 332.304C204.93 332.304 198.018 322.992 198.018 304.368C198.018 292.08 201.954 263.088 209.826 217.392C217.89 171.696 221.922 139.536 221.922 120.912C221.922 102.096 219.906 88.656 215.874 80.592C221.058 76.176 227.202 73.968 234.306 73.968ZM416.761 103.92C416.761 114.48 413.017 142.032 405.529 186.576C398.233 230.928 394.585 262.608 394.585 281.616C394.585 300.432 398.233 313.776 405.529 321.648C399.577 328.56 392.953 332.016 385.657 332.016C370.681 332.016 363.193 319.344 363.193 294C363.193 283.44 366.553 256.08 373.273 211.92C380.185 167.568 383.641 136.656 383.641 119.184C383.641 101.52 381.625 88.656 377.593 80.592C382.777 76.176 388.921 73.968 396.025 73.968C403.321 73.968 408.601 76.368 411.865 81.168C415.129 85.776 416.761 93.36 416.761 103.92ZM586.114 106.512L541.474 103.056C541.09 115.344 537.154 143.76 529.666 188.304C522.37 232.656 518.722 263.952 518.722 282.192C518.722 300.24 522.466 313.392 529.954 321.648C524.002 328.56 517.282 332.016 509.794 332.016C495.01 332.016 487.618 319.344 487.618 294C487.618 283.44 491.074 255.6 497.986 210.48C505.09 165.168 508.642 133.872 508.642 116.592C508.642 110.64 508.546 106.032 508.354 102.768C481.666 102.96 459.874 106.032 442.978 111.984C443.746 99.504 446.338 91.056 450.754 86.64C455.362 82.032 462.178 79.728 471.202 79.728L578.338 80.88C596.194 80.88 608.098 79.056 614.05 75.408C613.282 87.888 610.69 96.24 606.274 100.464C602.05 104.496 595.33 106.512 586.114 106.512Z" fill="#254783"/>
<path d="M26 231.364C26 205.758 46.7577 185 72.3636 185H725.364C727.924 185 730 187.076 730 189.636V189.636C730 215.242 709.242 236 683.636 236H30.6363C28.0758 236 26 233.924 26 231.364V231.364Z" fill="white"/>
<path d="M92.448 80.304L139.104 80.88C162.144 80.88 177.504 79.056 185.184 75.408C184.224 87.888 181.152 96.24 175.968 100.464C170.976 104.496 163.008 106.512 152.064 106.512C134.016 106.512 111.456 104.4 84.384 100.176C84.384 113.04 80.352 143.664 72.288 192.048C109.92 191.664 134.496 188.496 146.016 182.544C144.864 197.712 140.544 207.12 133.056 210.768C129.024 212.88 125.184 214.224 121.536 214.8C117.888 215.184 113.472 215.376 108.288 215.376C103.104 215.376 89.952 214.512 68.832 212.784C62.88 250.992 59.904 279.312 59.904 297.744C59.904 301.584 60 304.368 60.192 306.096C75.936 306.864 89.184 307.248 99.936 307.248C136.224 307.248 159.072 304.752 168.48 299.76C167.904 307.44 166.56 313.584 164.448 318.192C162.528 322.8 159.264 326.16 154.656 328.272C150.048 330.384 145.536 331.632 141.12 332.016C136.896 332.592 129.984 332.88 120.384 332.88C110.976 332.88 92.16 330.864 63.936 326.832C58.752 330.48 53.568 332.304 48.384 332.304C34.56 332.304 27.648 322.992 27.648 304.368C27.648 292.272 31.968 261.264 40.608 211.344C37.536 211.152 32.64 211.056 25.92 211.056C26.88 203.952 28.416 199.248 30.528 196.944C32.64 194.448 37.056 192.912 43.776 192.336C49.152 158.352 51.84 134.736 51.84 121.488C51.84 108.048 50.4 97.008 47.52 88.368C54.24 82.992 69.216 80.304 92.448 80.304Z" fill="#254783"/>
<path d="M416.761 103.92C416.761 114.48 413.017 142.032 405.529 186.576C398.233 230.928 394.585 262.608 394.585 281.616C394.585 300.432 398.233 313.776 405.529 321.648C399.577 328.56 392.953 332.016 385.657 332.016C370.681 332.016 363.193 319.344 363.193 294C363.193 283.44 366.553 256.08 373.273 211.92C380.185 167.568 383.641 136.656 383.641 119.184C383.641 101.52 381.625 88.656 377.593 80.592C382.777 76.176 388.921 73.968 396.025 73.968C403.321 73.968 408.601 76.368 411.865 81.168C415.129 85.776 416.761 93.36 416.761 103.92Z" fill="#254783"/>
</svg>
