<svg width="1440" height="1024" viewBox="0 0 1440 1024" fill="none" xmlns="http://www.w3.org/2000/svg">
<path d="M104.449 86L130.992 42.7025H99.3486L66.8615 0H28.9131L0 42.7025H28.9131L66.8615 86H104.449Z" stroke="#DCDCDC"/>
<path d="M104.449 598L130.992 554.702H99.3486L66.8615 512H28.9131L0 554.702H28.9131L66.8615 598H104.449Z" stroke="#DCDCDC"/>
<path d="M235.441 86L261.985 42.7025H230.341L197.854 0H159.905L130.992 42.7025H159.905L197.854 86H235.441Z" stroke="#DCDCDC"/>
<path d="M235.441 598L261.985 554.702H230.341L197.854 512H159.905L130.992 554.702H159.905L197.854 598H235.441Z" stroke="#DCDCDC"/>
<path d="M366.433 86L392.977 42.7025H361.333L328.846 0H290.898L261.985 42.7025H290.898L328.846 86H366.433Z" stroke="#DCDCDC"/>
<path d="M366.433 598L392.977 554.702H361.333L328.846 512H290.898L261.985 554.702H290.898L328.846 598H366.433Z" stroke="#DCDCDC"/>
<path d="M497.426 86L523.969 42.7025H492.326L459.839 0H421.89L392.977 42.7025H421.89L459.839 86H497.426Z" stroke="#DCDCDC"/>
<path d="M497.426 598L523.969 554.702H492.326L459.839 512H421.89L392.977 554.702H421.89L459.839 598H497.426Z" stroke="#DCDCDC"/>
<path d="M627.688 86L654.046 42.7025H622.623L590.364 0H552.68L523.97 42.7025H552.68L590.364 86H627.688Z" stroke="#DCDCDC"/>
<path d="M627.688 598L654.046 554.702H622.623L590.364 512H552.68L523.97 554.702H552.68L590.364 598H627.688Z" stroke="#DCDCDC"/>
<path d="M758.494 86L785.038 42.7025H753.394L720.907 0H682.959L654.046 42.7025H682.959L720.907 86H758.494Z" stroke="#DCDCDC"/>
<path d="M1151.47 86L1178.02 42.7025H1146.37L1113.88 0H1075.94L1047.02 42.7025H1075.94L1113.88 86H1151.47Z" stroke="#DCDCDC"/>
<path d="M758.494 598L785.038 554.702H753.394L720.907 512H682.959L654.046 554.702H682.959L720.907 598H758.494Z" stroke="#DCDCDC"/>
<path d="M1151.47 598L1178.02 554.702H1146.37L1113.88 512H1075.94L1047.02 554.702H1075.94L1113.88 598H1151.47Z" stroke="#DCDCDC"/>
<path d="M889.487 86L916.03 42.7025H884.387L851.9 0H813.951L785.038 42.7025H813.951L851.9 86H889.487Z" stroke="#DCDCDC"/>
<path d="M1282.46 86L1309.01 42.7025H1277.36L1244.88 0H1206.93L1178.02 42.7025H1206.93L1244.88 86H1282.46Z" stroke="#DCDCDC"/>
<path d="M889.487 598L916.03 554.702H884.387L851.9 512H813.951L785.038 554.702H813.951L851.9 598H889.487Z" stroke="#DCDCDC"/>
<path d="M1282.46 598L1309.01 554.702H1277.36L1244.88 512H1206.93L1178.02 554.702H1206.93L1244.88 598H1282.46Z" stroke="#DCDCDC"/>
<path d="M1020.48 86L1047.02 42.7025H1015.38L982.892 0H944.944L916.031 42.7025H944.944L982.892 86H1020.48Z" stroke="#DCDCDC"/>
<path d="M1413.46 86L1440 42.7025H1408.36L1375.87 0H1337.92L1309.01 42.7025H1337.92L1375.87 86H1413.46Z" stroke="#DCDCDC"/>
<path d="M1020.48 598L1047.02 554.702H1015.38L982.892 512H944.944L916.031 554.702H944.944L982.892 598H1020.48Z" stroke="#DCDCDC"/>
<path d="M1413.46 598L1440 554.702H1408.36L1375.87 512H1337.92L1309.01 554.702H1337.92L1375.87 598H1413.46Z" stroke="#DCDCDC"/>
<path d="M104.449 426L130.992 382.702H99.3486L66.8615 340H28.9131L0 382.702H28.9131L66.8615 426H104.449Z" stroke="#DCDCDC"/>
<path d="M104.449 938L130.992 894.702H99.3486L66.8615 852H28.9131L0 894.702H28.9131L66.8615 938H104.449Z" stroke="#DCDCDC"/>
<path d="M235.441 426L261.985 382.702H230.341L197.854 340H159.905L130.992 382.702H159.905L197.854 426H235.441Z" stroke="#DCDCDC"/>
<path d="M235.441 938L261.985 894.702H230.341L197.854 852H159.905L130.992 894.702H159.905L197.854 938H235.441Z" stroke="#DCDCDC"/>
<path d="M366.433 426L392.977 382.702H361.333L328.846 340H290.898L261.985 382.702H290.898L328.846 426H366.433Z" stroke="#DCDCDC"/>
<path d="M366.433 938L392.977 894.702H361.333L328.846 852H290.898L261.985 894.702H290.898L328.846 938H366.433Z" stroke="#DCDCDC"/>
<path d="M497.426 426L523.969 382.702H492.326L459.839 340H421.89L392.977 382.702H421.89L459.839 426H497.426Z" stroke="#DCDCDC"/>
<path d="M497.426 938L523.969 894.702H492.326L459.839 852H421.89L392.977 894.702H421.89L459.839 938H497.426Z" stroke="#DCDCDC"/>
<path d="M627.688 426L654.046 382.702H622.623L590.364 340H552.68L523.97 382.702H552.68L590.364 426H627.688Z" stroke="#DCDCDC"/>
<path d="M627.688 938L654.046 894.702H622.623L590.364 852H552.68L523.97 894.702H552.68L590.364 938H627.688Z" stroke="#DCDCDC"/>
<path d="M758.494 426L785.038 382.702H753.394L720.907 340H682.959L654.046 382.702H682.959L720.907 426H758.494Z" stroke="#DCDCDC"/>
<path d="M1151.47 426L1178.02 382.702H1146.37L1113.88 340H1075.94L1047.02 382.702H1075.94L1113.88 426H1151.47Z" stroke="#DCDCDC"/>
<path d="M758.494 938L785.038 894.702H753.394L720.907 852H682.959L654.046 894.702H682.959L720.907 938H758.494Z" stroke="#DCDCDC"/>
<path d="M1151.47 938L1178.02 894.702H1146.37L1113.88 852H1075.94L1047.02 894.702H1075.94L1113.88 938H1151.47Z" stroke="#DCDCDC"/>
<path d="M889.487 426L916.03 382.702H884.387L851.9 340H813.951L785.038 382.702H813.951L851.9 426H889.487Z" stroke="#DCDCDC"/>
<path d="M1282.46 426L1309.01 382.702H1277.36L1244.88 340H1206.93L1178.02 382.702H1206.93L1244.88 426H1282.46Z" stroke="#DCDCDC"/>
<path d="M889.487 938L916.03 894.702H884.387L851.9 852H813.951L785.038 894.702H813.951L851.9 938H889.487Z" stroke="#DCDCDC"/>
<path d="M1282.46 938L1309.01 894.702H1277.36L1244.88 852H1206.93L1178.02 894.702H1206.93L1244.88 938H1282.46Z" stroke="#DCDCDC"/>
<path d="M1020.48 426L1047.02 382.702H1015.38L982.892 340H944.944L916.031 382.702H944.944L982.892 426H1020.48Z" stroke="#DCDCDC"/>
<path d="M1413.46 426L1440 382.702H1408.36L1375.87 340H1337.92L1309.01 382.702H1337.92L1375.87 426H1413.46Z" stroke="#DCDCDC"/>
<path d="M1020.48 938L1047.02 894.702H1015.38L982.892 852H944.944L916.031 894.702H944.944L982.892 938H1020.48Z" stroke="#DCDCDC"/>
<path d="M1413.46 938L1440 894.702H1408.36L1375.87 852H1337.92L1309.01 894.702H1337.92L1375.87 938H1413.46Z" stroke="#DCDCDC"/>
<path d="M104.449 512L130.992 468.702H99.3486L66.8615 426H28.9131L0 468.702H28.9131L66.8615 512H104.449Z" stroke="#DCDCDC"/>
<path d="M104.449 1024L130.992 980.702H99.3486L66.8615 938H28.9131L0 980.702H28.9131L66.8615 1024H104.449Z" stroke="#DCDCDC"/>
<path d="M235.441 512L261.985 468.702H230.341L197.854 426H159.905L130.992 468.702H159.905L197.854 512H235.441Z" stroke="#DCDCDC"/>
<path d="M235.441 1024L261.985 980.702H230.341L197.854 938H159.905L130.992 980.702H159.905L197.854 1024H235.441Z" stroke="#DCDCDC"/>
<path d="M366.433 512L392.977 468.702H361.333L328.846 426H290.898L261.985 468.702H290.898L328.846 512H366.433Z" stroke="#DCDCDC"/>
<path d="M366.433 1024L392.977 980.702H361.333L328.846 938H290.898L261.985 980.702H290.898L328.846 1024H366.433Z" stroke="#DCDCDC"/>
<path d="M497.426 512L523.969 468.702H492.326L459.839 426H421.89L392.977 468.702H421.89L459.839 512H497.426Z" stroke="#DCDCDC"/>
<path d="M497.426 1024L523.969 980.702H492.326L459.839 938H421.89L392.977 980.702H421.89L459.839 1024H497.426Z" stroke="#DCDCDC"/>
<path d="M627.688 512L654.046 468.702H622.623L590.364 426H552.68L523.97 468.702H552.68L590.364 512H627.688Z" stroke="#DCDCDC"/>
<path d="M627.688 1024L654.046 980.702H622.623L590.364 938H552.68L523.97 980.702H552.68L590.364 1024H627.688Z" stroke="#DCDCDC"/>
<path d="M758.494 512L785.038 468.702H753.394L720.907 426H682.959L654.046 468.702H682.959L720.907 512H758.494Z" stroke="#DCDCDC"/>
<path d="M1151.47 512L1178.02 468.702H1146.37L1113.88 426H1075.94L1047.02 468.702H1075.94L1113.88 512H1151.47Z" stroke="#DCDCDC"/>
<path d="M758.494 1024L785.038 980.702H753.394L720.907 938H682.959L654.046 980.702H682.959L720.907 1024H758.494Z" stroke="#DCDCDC"/>
<path d="M1151.47 1024L1178.02 980.702H1146.37L1113.88 938H1075.94L1047.02 980.702H1075.94L1113.88 1024H1151.47Z" stroke="#DCDCDC"/>
<path d="M889.487 512L916.03 468.702H884.387L851.9 426H813.951L785.038 468.702H813.951L851.9 512H889.487Z" stroke="#DCDCDC"/>
<path d="M1282.46 512L1309.01 468.702H1277.36L1244.88 426H1206.93L1178.02 468.702H1206.93L1244.88 512H1282.46Z" stroke="#DCDCDC"/>
<path d="M889.487 1024L916.03 980.702H884.387L851.9 938H813.951L785.038 980.702H813.951L851.9 1024H889.487Z" stroke="#DCDCDC"/>
<path d="M1282.46 1024L1309.01 980.702H1277.36L1244.88 938H1206.93L1178.02 980.702H1206.93L1244.88 1024H1282.46Z" stroke="#DCDCDC"/>
<path d="M1020.48 512L1047.02 468.702H1015.38L982.892 426H944.944L916.031 468.702H944.944L982.892 512H1020.48Z" stroke="#DCDCDC"/>
<path d="M1413.46 512L1440 468.702H1408.36L1375.87 426H1337.92L1309.01 468.702H1337.92L1375.87 512H1413.46Z" stroke="#DCDCDC"/>
<path d="M1020.48 1024L1047.02 980.702H1015.38L982.892 938H944.944L916.031 980.702H944.944L982.892 1024H1020.48Z" stroke="#DCDCDC"/>
<path d="M1413.46 1024L1440 980.702H1408.36L1375.87 938H1337.92L1309.01 980.702H1337.92L1375.87 1024H1413.46Z" stroke="#DCDCDC"/>
<path d="M104.449 170L130.992 126.702H99.3486L66.8615 84H28.9131L0 126.702H28.9131L66.8615 170H104.449Z" stroke="#DCDCDC"/>
<path d="M104.449 682L130.992 638.702H99.3486L66.8615 596H28.9131L0 638.702H28.9131L66.8615 682H104.449Z" stroke="#DCDCDC"/>
<path d="M235.441 170L261.985 126.702H230.341L197.854 84H159.905L130.992 126.702H159.905L197.854 170H235.441Z" stroke="#DCDCDC"/>
<path d="M235.441 682L261.985 638.702H230.341L197.854 596H159.905L130.992 638.702H159.905L197.854 682H235.441Z" stroke="#DCDCDC"/>
<path d="M366.433 170L392.977 126.702H361.333L328.846 84H290.898L261.985 126.702H290.898L328.846 170H366.433Z" stroke="#DCDCDC"/>
<path d="M366.433 682L392.977 638.702H361.333L328.846 596H290.898L261.985 638.702H290.898L328.846 682H366.433Z" stroke="#DCDCDC"/>
<path d="M497.426 170L523.969 126.702H492.326L459.839 84H421.89L392.977 126.702H421.89L459.839 170H497.426Z" stroke="#DCDCDC"/>
<path d="M497.426 682L523.969 638.702H492.326L459.839 596H421.89L392.977 638.702H421.89L459.839 682H497.426Z" stroke="#DCDCDC"/>
<path d="M627.688 170L654.046 126.702H622.623L590.364 84H552.68L523.97 126.702H552.68L590.364 170H627.688Z" stroke="#DCDCDC"/>
<path d="M627.688 682L654.046 638.702H622.623L590.364 596H552.68L523.97 638.702H552.68L590.364 682H627.688Z" stroke="#DCDCDC"/>
<path d="M758.494 170L785.038 126.702H753.394L720.907 84H682.959L654.046 126.702H682.959L720.907 170H758.494Z" stroke="#DCDCDC"/>
<path d="M1151.47 170L1178.02 126.702H1146.37L1113.88 84H1075.94L1047.02 126.702H1075.94L1113.88 170H1151.47Z" stroke="#DCDCDC"/>
<path d="M758.494 682L785.038 638.702H753.394L720.907 596H682.959L654.046 638.702H682.959L720.907 682H758.494Z" stroke="#DCDCDC"/>
<path d="M1151.47 682L1178.02 638.702H1146.37L1113.88 596H1075.94L1047.02 638.702H1075.94L1113.88 682H1151.47Z" stroke="#DCDCDC"/>
<path d="M889.487 170L916.03 126.702H884.387L851.9 84H813.951L785.038 126.702H813.951L851.9 170H889.487Z" stroke="#DCDCDC"/>
<path d="M1282.46 170L1309.01 126.702H1277.36L1244.88 84H1206.93L1178.02 126.702H1206.93L1244.88 170H1282.46Z" stroke="#DCDCDC"/>
<path d="M889.487 682L916.03 638.702H884.387L851.9 596H813.951L785.038 638.702H813.951L851.9 682H889.487Z" stroke="#DCDCDC"/>
<path d="M1282.46 682L1309.01 638.702H1277.36L1244.88 596H1206.93L1178.02 638.702H1206.93L1244.88 682H1282.46Z" stroke="#DCDCDC"/>
<path d="M1020.48 170L1047.02 126.702H1015.38L982.892 84H944.944L916.031 126.702H944.944L982.892 170H1020.48Z" stroke="#DCDCDC"/>
<path d="M1413.46 170L1440 126.702H1408.36L1375.87 84H1337.92L1309.01 126.702H1337.92L1375.87 170H1413.46Z" stroke="#DCDCDC"/>
<path d="M1020.48 682L1047.02 638.702H1015.38L982.892 596H944.944L916.031 638.702H944.944L982.892 682H1020.48Z" stroke="#DCDCDC"/>
<path d="M1413.46 682L1440 638.702H1408.36L1375.87 596H1337.92L1309.01 638.702H1337.92L1375.87 682H1413.46Z" stroke="#DCDCDC"/>
<path d="M104.449 256L130.992 212.702H99.3486L66.8615 170H28.9131L0 212.702H28.9131L66.8615 256H104.449Z" stroke="#DCDCDC"/>
<path d="M104.449 768L130.992 724.702H99.3486L66.8615 682H28.9131L0 724.702H28.9131L66.8615 768H104.449Z" stroke="#DCDCDC"/>
<path d="M235.441 256L261.985 212.702H230.341L197.854 170H159.905L130.992 212.702H159.905L197.854 256H235.441Z" stroke="#DCDCDC"/>
<path d="M235.441 768L261.985 724.702H230.341L197.854 682H159.905L130.992 724.702H159.905L197.854 768H235.441Z" stroke="#DCDCDC"/>
<path d="M366.433 256L392.977 212.702H361.333L328.846 170H290.898L261.985 212.702H290.898L328.846 256H366.433Z" stroke="#DCDCDC"/>
<path d="M366.433 768L392.977 724.702H361.333L328.846 682H290.898L261.985 724.702H290.898L328.846 768H366.433Z" stroke="#DCDCDC"/>
<path d="M497.426 256L523.969 212.702H492.326L459.839 170H421.89L392.977 212.702H421.89L459.839 256H497.426Z" stroke="#DCDCDC"/>
<path d="M497.426 768L523.969 724.702H492.326L459.839 682H421.89L392.977 724.702H421.89L459.839 768H497.426Z" stroke="#DCDCDC"/>
<path d="M627.688 256L654.046 212.702H622.623L590.364 170H552.68L523.97 212.702H552.68L590.364 256H627.688Z" stroke="#DCDCDC"/>
<path d="M627.688 768L654.046 724.702H622.623L590.364 682H552.68L523.97 724.702H552.68L590.364 768H627.688Z" stroke="#DCDCDC"/>
<path d="M758.494 256L785.038 212.702H753.394L720.907 170H682.959L654.046 212.702H682.959L720.907 256H758.494Z" stroke="#DCDCDC"/>
<path d="M1151.47 256L1178.02 212.702H1146.37L1113.88 170H1075.94L1047.02 212.702H1075.94L1113.88 256H1151.47Z" stroke="#DCDCDC"/>
<path d="M758.494 768L785.038 724.702H753.394L720.907 682H682.959L654.046 724.702H682.959L720.907 768H758.494Z" stroke="#DCDCDC"/>
<path d="M1151.47 768L1178.02 724.702H1146.37L1113.88 682H1075.94L1047.02 724.702H1075.94L1113.88 768H1151.47Z" stroke="#DCDCDC"/>
<path d="M889.487 256L916.03 212.702H884.387L851.9 170H813.951L785.038 212.702H813.951L851.9 256H889.487Z" stroke="#DCDCDC"/>
<path d="M1282.46 256L1309.01 212.702H1277.36L1244.88 170H1206.93L1178.02 212.702H1206.93L1244.88 256H1282.46Z" stroke="#DCDCDC"/>
<path d="M889.487 768L916.03 724.702H884.387L851.9 682H813.951L785.038 724.702H813.951L851.9 768H889.487Z" stroke="#DCDCDC"/>
<path d="M1282.46 768L1309.01 724.702H1277.36L1244.88 682H1206.93L1178.02 724.702H1206.93L1244.88 768H1282.46Z" stroke="#DCDCDC"/>
<path d="M1020.48 256L1047.02 212.702H1015.38L982.892 170H944.944L916.031 212.702H944.944L982.892 256H1020.48Z" stroke="#DCDCDC"/>
<path d="M1413.46 256L1440 212.702H1408.36L1375.87 170H1337.92L1309.01 212.702H1337.92L1375.87 256H1413.46Z" stroke="#DCDCDC"/>
<path d="M1020.48 768L1047.02 724.702H1015.38L982.892 682H944.944L916.031 724.702H944.944L982.892 768H1020.48Z" stroke="#DCDCDC"/>
<path d="M1413.46 768L1440 724.702H1408.36L1375.87 682H1337.92L1309.01 724.702H1337.92L1375.87 768H1413.46Z" stroke="#DCDCDC"/>
<path d="M104.449 340L130.992 296.702H99.3486L66.8615 254H28.9131L0 296.702H28.9131L66.8615 340H104.449Z" stroke="#DCDCDC"/>
<path d="M104.449 852L130.992 808.702H99.3486L66.8615 766H28.9131L0 808.702H28.9131L66.8615 852H104.449Z" stroke="#DCDCDC"/>
<path d="M235.441 340L261.985 296.702H230.341L197.854 254H159.905L130.992 296.702H159.905L197.854 340H235.441Z" stroke="#DCDCDC"/>
<path d="M235.441 852L261.985 808.702H230.341L197.854 766H159.905L130.992 808.702H159.905L197.854 852H235.441Z" stroke="#DCDCDC"/>
<path d="M366.433 340L392.977 296.702H361.333L328.846 254H290.898L261.985 296.702H290.898L328.846 340H366.433Z" stroke="#DCDCDC"/>
<path d="M366.433 852L392.977 808.702H361.333L328.846 766H290.898L261.985 808.702H290.898L328.846 852H366.433Z" stroke="#DCDCDC"/>
<path d="M497.426 340L523.969 296.702H492.326L459.839 254H421.89L392.977 296.702H421.89L459.839 340H497.426Z" stroke="#DCDCDC"/>
<path d="M497.426 852L523.969 808.702H492.326L459.839 766H421.89L392.977 808.702H421.89L459.839 852H497.426Z" stroke="#DCDCDC"/>
<path d="M627.688 340L654.046 296.702H622.623L590.364 254H552.68L523.97 296.702H552.68L590.364 340H627.688Z" stroke="#DCDCDC"/>
<path d="M627.688 852L654.046 808.702H622.623L590.364 766H552.68L523.97 808.702H552.68L590.364 852H627.688Z" stroke="#DCDCDC"/>
<path d="M758.494 340L785.038 296.702H753.394L720.907 254H682.959L654.046 296.702H682.959L720.907 340H758.494Z" stroke="#DCDCDC"/>
<path d="M1151.47 340L1178.02 296.702H1146.37L1113.88 254H1075.94L1047.02 296.702H1075.94L1113.88 340H1151.47Z" stroke="#DCDCDC"/>
<path d="M758.494 852L785.038 808.702H753.394L720.907 766H682.959L654.046 808.702H682.959L720.907 852H758.494Z" stroke="#DCDCDC"/>
<path d="M1151.47 852L1178.02 808.702H1146.37L1113.88 766H1075.94L1047.02 808.702H1075.94L1113.88 852H1151.47Z" stroke="#DCDCDC"/>
<path d="M889.487 340L916.03 296.702H884.387L851.9 254H813.951L785.038 296.702H813.951L851.9 340H889.487Z" stroke="#DCDCDC"/>
<path d="M1282.46 340L1309.01 296.702H1277.36L1244.88 254H1206.93L1178.02 296.702H1206.93L1244.88 340H1282.46Z" stroke="#DCDCDC"/>
<path d="M889.487 852L916.03 808.702H884.387L851.9 766H813.951L785.038 808.702H813.951L851.9 852H889.487Z" stroke="#DCDCDC"/>
<path d="M1282.46 852L1309.01 808.702H1277.36L1244.88 766H1206.93L1178.02 808.702H1206.93L1244.88 852H1282.46Z" stroke="#DCDCDC"/>
<path d="M1020.48 340L1047.02 296.702H1015.38L982.892 254H944.944L916.031 296.702H944.944L982.892 340H1020.48Z" stroke="#DCDCDC"/>
<path d="M1413.46 340L1440 296.702H1408.36L1375.87 254H1337.92L1309.01 296.702H1337.92L1375.87 340H1413.46Z" stroke="#DCDCDC"/>
<path d="M1020.48 852L1047.02 808.702H1015.38L982.892 766H944.944L916.031 808.702H944.944L982.892 852H1020.48Z" stroke="#DCDCDC"/>
<path d="M1413.46 852L1440 808.702H1408.36L1375.87 766H1337.92L1309.01 808.702H1337.92L1375.87 852H1413.46Z" stroke="#DCDCDC"/>
</svg>
