<?xml version="1.0" encoding="UTF-8"?>
<svg xmlns="http://www.w3.org/2000/svg" xmlns:xlink="http://www.w3.org/1999/xlink" width="64pt" height="64pt" viewBox="0 0 64 64" version="1.1">
<g id="surface1">
<path style=" stroke:none;fill-rule:nonzero;fill:rgba(98, 161, 228, .0);fill-opacity:1;" d="M 63.941406 31.769531 C 63.941406 14.492188 49.757812 0.488281 32.257812 0.488281 C 14.757812 0.488281 0.570312 14.492188 0.570312 31.769531 C 0.570312 49.042969 14.757812 63.046875 32.257812 63.046875 C 49.757812 63.046875 63.941406 49.042969 63.941406 31.769531 Z M 63.941406 31.769531 "/>
<path style=" stroke:none;fill-rule:nonzero;fill:rgb(10%,10%,10%))fill-opacity:1;" d="M 49.347656 40.609375 C 49.347656 41.054688 49.269531 41.640625 49.113281 42.359375 C 48.953125 43.078125 48.785156 43.644531 48.613281 44.058594 C 48.28125 44.886719 47.3125 45.765625 45.714844 46.691406 C 44.226562 47.535156 42.753906 47.960938 41.296875 47.960938 C 40.871094 47.960938 40.453125 47.929688 40.050781 47.871094 C 39.644531 47.8125 39.191406 47.710938 38.683594 47.5625 C 38.175781 47.414062 37.800781 47.292969 37.554688 47.203125 C 37.308594 47.109375 36.871094 46.941406 36.238281 46.691406 C 35.605469 46.445312 35.214844 46.296875 35.074219 46.246094 C 33.523438 45.667969 32.136719 44.980469 30.917969 44.183594 C 28.890625 42.875 26.796875 41.09375 24.632812 38.832031 C 22.472656 36.574219 20.765625 34.382812 19.515625 32.265625 C 18.753906 30.988281 18.097656 29.539062 17.542969 27.917969 C 17.496094 27.769531 17.355469 27.363281 17.117188 26.699219 C 16.878906 26.039062 16.71875 25.578125 16.628906 25.324219 C 16.542969 25.066406 16.429688 24.671875 16.285156 24.144531 C 16.144531 23.613281 16.042969 23.136719 15.988281 22.714844 C 15.933594 22.292969 15.90625 21.859375 15.90625 21.410156 C 15.90625 19.886719 16.308594 18.347656 17.117188 16.792969 C 18.003906 15.121094 18.84375 14.109375 19.632812 13.761719 C 20.03125 13.582031 20.574219 13.40625 21.261719 13.242188 C 21.949219 13.074219 22.507812 12.992188 22.9375 12.992188 C 23.15625 12.992188 23.324219 13.015625 23.433594 13.066406 C 23.71875 13.167969 24.140625 13.796875 24.695312 14.953125 C 24.867188 15.269531 25.105469 15.714844 25.40625 16.296875 C 25.707031 16.875 25.984375 17.402344 26.238281 17.871094 C 26.492188 18.34375 26.738281 18.789062 26.972656 19.199219 C 27.023438 19.265625 27.160156 19.472656 27.390625 19.820312 C 27.621094 20.167969 27.789062 20.464844 27.898438 20.703125 C 28.011719 20.945312 28.066406 21.179688 28.066406 21.410156 C 28.066406 21.742188 27.839844 22.15625 27.390625 22.652344 C 26.9375 23.148438 26.449219 23.605469 25.917969 24.019531 C 25.386719 24.433594 24.894531 24.871094 24.445312 25.335938 C 23.992188 25.796875 23.765625 26.179688 23.765625 26.476562 C 23.765625 26.625 23.808594 26.8125 23.886719 27.035156 C 23.964844 27.257812 24.03125 27.429688 24.089844 27.546875 C 24.144531 27.660156 24.253906 27.859375 24.421875 28.140625 C 24.585938 28.421875 24.679688 28.582031 24.695312 28.613281 C 25.898438 30.882812 27.273438 32.828125 28.828125 34.449219 C 30.378906 36.070312 32.238281 37.511719 34.410156 38.769531 C 34.441406 38.785156 34.589844 38.882812 34.859375 39.054688 C 35.128906 39.230469 35.320312 39.347656 35.429688 39.402344 C 35.539062 39.460938 35.703125 39.53125 35.917969 39.613281 C 36.128906 39.699219 36.308594 39.738281 36.453125 39.738281 C 36.734375 39.738281 37.101562 39.503906 37.542969 39.03125 C 37.988281 38.558594 38.40625 38.046875 38.804688 37.492188 C 39.199219 36.9375 39.632812 36.421875 40.109375 35.953125 C 40.585938 35.480469 40.980469 35.242188 41.296875 35.242188 C 41.519531 35.242188 41.742188 35.300781 41.972656 35.417969 C 42.203125 35.535156 42.484375 35.710938 42.816406 35.953125 C 43.148438 36.191406 43.347656 36.335938 43.410156 36.386719 C 43.804688 36.632812 44.230469 36.890625 44.679688 37.15625 C 45.132812 37.421875 45.636719 37.710938 46.191406 38.023438 C 46.742188 38.339844 47.171875 38.589844 47.472656 38.769531 C 48.582031 39.351562 49.183594 39.789062 49.277344 40.085938 C 49.324219 40.203125 49.347656 40.375 49.347656 40.609375 Z M 49.347656 40.609375 "/>
</g>
</svg>
