<?xml version="1.0" encoding="UTF-8"?>
<svg xmlns="http://www.w3.org/2000/svg" xmlns:xlink="http://www.w3.org/1999/xlink" width="34pt" height="34pt" viewBox="0 0 34 34" version="1.1">
<g id="surface1">
<path style=" stroke:none;fill-rule:nonzero;fill:rgba(0%,0%,0%, 0);fill-opacity:1;" d="M 33.875 17.164062 C 33.875 8.035156 26.371094 0.632812 17.121094 0.632812 C 7.867188 0.632812 0.367188 8.035156 0.367188 17.164062 C 0.367188 26.292969 7.867188 33.695312 17.121094 33.695312 C 26.371094 33.695312 33.875 26.292969 33.875 17.164062 Z M 33.875 17.164062 "/>
<path style=" stroke:none;fill-rule:nonzero;fill:rgb(0%,0%,0%);fill-opacity:1;" d="M 23.394531 18.195312 C 23.113281 18.191406 22.84375 18.078125 22.644531 17.875 C 22.230469 17.449219 22.230469 16.757812 22.644531 16.332031 L 24.917969 14.007812 C 25.320312 13.597656 25.546875 13.039062 25.546875 12.457031 C 25.546875 11.875 25.320312 11.316406 24.917969 10.90625 L 23.394531 9.351562 C 22.542969 8.527344 21.210938 8.527344 20.359375 9.351562 L 18.085938 11.671875 C 17.660156 12.023438 17.046875 11.988281 16.660156 11.59375 C 16.273438 11.203125 16.238281 10.578125 16.574219 10.140625 L 18.847656 7.816406 C 20.546875 6.160156 23.21875 6.160156 24.917969 7.816406 L 26.429688 9.363281 C 27.234375 10.183594 27.6875 11.300781 27.6875 12.460938 C 27.6875 13.625 27.234375 14.742188 26.429688 15.5625 L 24.144531 17.875 C 23.945312 18.078125 23.675781 18.191406 23.394531 18.195312 Z M 23.394531 18.195312 "/>
<path style=" stroke:none;fill-rule:nonzero;fill:rgb(0%,0%,0%);fill-opacity:1;" d="M 13.175781 25.816406 C 12.046875 25.816406 10.960938 25.390625 10.164062 24.628906 L 8.664062 23.199219 C 7.863281 22.441406 7.414062 21.40625 7.414062 20.332031 C 7.414062 19.257812 7.863281 18.226562 8.664062 17.464844 L 10.929688 15.316406 C 11.355469 14.996094 11.960938 15.03125 12.34375 15.398438 C 12.722656 15.761719 12.757812 16.34375 12.417969 16.746094 L 10.164062 18.894531 C 9.761719 19.273438 9.539062 19.789062 9.539062 20.328125 C 9.539062 20.863281 9.761719 21.382812 10.164062 21.761719 L 11.675781 23.199219 C 12.519531 23.960938 13.839844 23.960938 14.6875 23.199219 L 16.941406 21.050781 C 17.195312 20.746094 17.609375 20.605469 18.011719 20.691406 C 18.410156 20.777344 18.722656 21.070312 18.816406 21.449219 C 18.90625 21.832031 18.761719 22.226562 18.441406 22.46875 L 16.1875 24.617188 C 15.390625 25.382812 14.304688 25.8125 13.175781 25.816406 Z M 13.175781 25.816406 "/>
<path style=" stroke:none;fill-rule:nonzero;fill:rgb(0%,0%,0%);fill-opacity:1;" d="M 13.761719 20.621094 C 13.496094 20.621094 13.234375 20.519531 13.046875 20.332031 C 12.855469 20.148438 12.746094 19.894531 12.746094 19.628906 C 12.746094 19.363281 12.855469 19.109375 13.046875 18.925781 L 19.480469 12.613281 C 19.875 12.226562 20.511719 12.226562 20.90625 12.613281 C 21.097656 12.796875 21.207031 13.050781 21.207031 13.316406 C 21.207031 13.582031 21.097656 13.835938 20.90625 14.019531 L 14.46875 20.332031 C 14.28125 20.515625 14.027344 20.621094 13.761719 20.621094 Z M 13.761719 20.621094 "/>
</g>
</svg>
