<?xml version="1.0" encoding="UTF-8"?>
<svg xmlns="http://www.w3.org/2000/svg" xmlns:xlink="http://www.w3.org/1999/xlink" width="64pt" height="64pt" viewBox="0 0 64 64" version="1.1">
<g id="surface1">
<path style=" stroke:none;fill-rule:nonzero;fill:rgba(98, 161, 228, .0);fill-opacity:1;" d="M 64 32 C 64 49.671875 49.671875 64 32 64 C 14.328125 64 0 49.671875 0 32 C 0 14.328125 14.328125 0 32 0 C 49.671875 0 64 14.328125 64 32 Z M 64 32 "/>
<path style=" stroke:none;fill-rule:nonzero;fill:rgb(0%,0%,0%);fill-opacity:1;" d="M 32 19 C 27.601562 19 24 22.601562 24 27 C 24 31.398438 27.601562 35 32 35 C 36.398438 35 40 31.398438 40 27 C 40 22.601562 36.398438 19 32 19 Z M 32 19 "/>
<path style=" stroke:none;fill-rule:nonzero;fill:rgb(0%,0%,0%);fill-opacity:1;" d="M 32 12 C 23.699219 12 17 18.699219 17 27 C 17 34.5 29.300781 48.898438 31.648438 51.550781 C 31.851562 51.800781 32.199219 51.800781 32.398438 51.550781 C 34.699219 48.898438 47 34.5 47 27 C 47 18.699219 40.300781 12 32 12 Z M 32 37 C 26.5 37 22 32.5 22 27 C 22 21.5 26.5 17 32 17 C 37.5 17 42 21.5 42 27 C 42 32.5 37.5 37 32 37 Z M 32 37 "/>
</g>
</svg>
