<svg xmlns="http://www.w3.org/2000/svg" xmlns:xlink="http://www.w3.org/1999/xlink" width="64pt" height="64pt" viewBox="0 0 64 64" version="1.1">
<g id="surface1">
<path style=" stroke:none;fill-rule:nonzero;fill:rgba(98, 161, 228, .0);fill-opacity:1;" d="M 63.671875 31.59375 C 63.671875 14.714844 49.570312 1.03125 32.175781 1.03125 C 14.78125 1.03125 0.683594 14.714844 0.683594 31.59375 C 0.683594 48.476562 14.78125 62.160156 32.175781 62.160156 C 49.570312 62.160156 63.671875 48.476562 63.671875 31.59375 Z M 63.671875 31.59375 "/>
<path style=" stroke:none;fill-rule:nonzero;fill:rgb(0%,0%,0%);fill-opacity:1;" d="M 40.816406 25.054688 C 40.816406 20.277344 36.988281 16.40625 32.265625 16.40625 C 27.542969 16.40625 23.714844 20.277344 23.714844 25.054688 C 23.714844 29.828125 27.542969 33.699219 32.265625 33.699219 C 36.988281 33.699219 40.816406 29.828125 40.816406 25.054688 Z M 40.816406 25.054688 "/>
<path style=" stroke:none;fill-rule:nonzero;fill:rgb(0%,0%,0%);fill-opacity:1;" d="M 46.515625 41.921875 C 45.183594 38.839844 42.664062 36.269531 39.40625 34.730469 C 38.519531 34.386719 37.480469 34.386719 36.742188 34.902344 C 35.257812 35.929688 33.777344 36.441406 32 36.441406 C 30.222656 36.441406 28.742188 35.929688 27.257812 34.902344 C 26.519531 34.558594 25.480469 34.386719 24.59375 34.902344 C 21.335938 36.441406 18.816406 39.011719 17.484375 42.09375 C 16.445312 44.316406 18.074219 46.886719 20.296875 46.886719 L 43.703125 46.886719 C 45.925781 46.886719 47.554688 44.316406 46.515625 41.921875 Z M 46.515625 41.921875 "/>
</g>
</svg>
