<?xml version="1.0" encoding="UTF-8"?>
<svg xmlns="http://www.w3.org/2000/svg" xmlns:xlink="http://www.w3.org/1999/xlink" width="64pt" height="64pt" viewBox="0 0 64 64" version="1.1">
<g id="surface1">
<path style=" stroke:none;fill-rule:nonzero;fill:rgba(98, 161, 228, .0);fill-opacity:1;" d="M 63.746094 32.308594 C 63.746094 14.949219 49.472656 0.878906 31.863281 0.878906 C 14.257812 0.878906 -0.015625 14.949219 -0.015625 32.308594 C -0.015625 49.667969 14.257812 63.738281 31.863281 63.738281 C 49.472656 63.738281 63.746094 49.667969 63.746094 32.308594 Z M 63.746094 32.308594 "/>
<path style=" stroke:none;fill-rule:nonzero;fill:rgb(0%,0%,0%);fill-opacity:1;" d="M 44.027344 26.425781 L 25.914062 26.425781 L 25.914062 22.402344 C 25.914062 19.390625 28.179688 16.660156 31.347656 16.375 C 34.972656 16.085938 37.992188 18.8125 37.992188 22.117188 C 37.992188 22.980469 38.59375 23.554688 39.5 23.554688 L 41.007812 23.554688 C 41.914062 23.554688 42.519531 22.980469 42.519531 22.117188 C 42.519531 16.660156 37.992188 12.210938 32.253906 12.066406 C 26.367188 11.921875 21.386719 16.515625 21.386719 22.117188 L 21.386719 26.425781 L 19.878906 26.425781 C 18.21875 26.425781 16.859375 27.71875 16.859375 29.296875 L 16.859375 39.347656 C 16.859375 43.367188 20.179688 46.527344 24.40625 46.527344 L 39.5 46.527344 C 43.726562 46.527344 47.046875 43.367188 47.046875 39.347656 L 47.046875 29.296875 C 47.046875 27.71875 45.6875 26.425781 44.027344 26.425781 Z M 33.460938 37.480469 L 33.460938 39.347656 C 33.460938 40.066406 32.707031 40.785156 31.953125 40.785156 C 31.199219 40.785156 30.445312 40.066406 30.445312 39.347656 L 30.445312 37.480469 C 29.539062 37.050781 28.933594 36.046875 28.933594 35.039062 C 28.933594 33.460938 30.292969 32.167969 31.953125 32.167969 C 33.613281 32.167969 34.972656 33.460938 34.972656 35.039062 C 34.972656 36.046875 34.367188 37.050781 33.460938 37.480469 Z M 33.460938 37.480469 "/>
</g>
</svg>
